<svg xmlns="http://www.w3.org/2000/svg" width="32" height="32" viewBox="0 0 32 32" fill="white">
    <path d="m31.631744,30.396992l-8.227724,-8.159929c2.154549,-2.35923 3.478355,-5.479439 3.478355,-8.912874c-0.000996,-7.344738 -6.00345,-13.298033 -13.408402,-13.298033c-7.404952,0 -13.407406,5.953295 -13.407406,13.298033s6.002454,13.298033 13.407406,13.298033c3.19945,0 6.133939,-1.115364 8.438895,-2.96962l8.259602,8.192055c0.402422,0.399565 1.055859,0.399565 1.458279,0c0.403412,-0.399565 0.403412,-1.048101 0.000996,-1.447664zm-18.157771,-5.820776c-6.265423,0 -11.344498,-5.037712 -11.344498,-11.252028s5.079076,-11.252027 11.344498,-11.252027c6.265422,0 11.344501,5.037711 11.344501,11.252027s-5.079079,11.252028 -11.344501,11.252028z"/>
</svg>
